<svg width="34" height="34" viewBox="0 0 34 34" fill="none" xmlns="http://www.w3.org/2000/svg">
<g clip-path="url(#clip0_79_43)">
<path d="M0 7.11084C0 6.82905 0.111942 6.5588 0.311199 6.35954C0.510456 6.16028 0.780707 6.04834 1.0625 6.04834H32.9375C33.2193 6.04834 33.4895 6.16028 33.6888 6.35954C33.8881 6.5588 34 6.82905 34 7.11084C34 7.39263 33.8881 7.66288 33.6888 7.86214C33.4895 8.0614 33.2193 8.17334 32.9375 8.17334H1.0625C0.780707 8.17334 0.510456 8.0614 0.311199 7.86214C0.111942 7.66288 0 7.39263 0 7.11084ZM32.9375 15.9375H1.0625C0.780707 15.9375 0.510456 16.0494 0.311199 16.2487C0.111942 16.4479 0 16.7182 0 17C0 17.2818 0.111942 17.552 0.311199 17.7513C0.510456 17.9506 0.780707 18.0625 1.0625 18.0625H32.9375C33.2193 18.0625 33.4895 17.9506 33.6888 17.7513C33.8881 17.552 34 17.2818 34 17C34 16.7182 33.8881 16.4479 33.6888 16.2487C33.4895 16.0494 33.2193 15.9375 32.9375 15.9375ZM17 25.8266H1.0625C0.780707 25.8266 0.510456 25.9386 0.311199 26.1378C0.111942 26.3371 0 26.6074 0 26.8891C0 27.1709 0.111942 27.4412 0.311199 27.6404C0.510456 27.8397 0.780707 27.9516 1.0625 27.9516H17C17.2818 27.9516 17.552 27.8397 17.7513 27.6404C17.9506 27.4412 18.0625 27.1709 18.0625 26.8891C18.0625 26.6074 17.9506 26.3371 17.7513 26.1378C17.552 25.9386 17.2818 25.8266 17 25.8266Z" fill="black"/>
</g>
<defs>
<clipPath id="clip0_79_43">
<rect width="34" height="34" fill="white"/>
</clipPath>
</defs>
</svg>
