<svg width="30" height="30" viewBox="0 0 30 30" fill="none" xmlns="http://www.w3.org/2000/svg">
<g clip-path="url(#clip0_80_87)">
<path d="M15.0133 2.94678e-05C13.7262 -0.00433028 12.4845 0.475221 11.5344 1.34357C10.5843 2.21191 9.99535 3.40562 9.88425 4.68792H8.25075C6.76431 4.68792 5.67472 5.83951 5.44794 7.40392L2.59375 27.1494C2.36875 28.7032 3.81622 30.0018 5.40011 30.0018H24.6052C26.1997 30.0018 27.6313 28.7014 27.408 27.1494L24.5556 7.40392C24.3377 5.89621 23.2818 4.68792 21.7528 4.68792H20.1406C20.0295 3.40562 19.4405 2.21191 18.4904 1.34357C17.5403 0.475221 16.2986 -0.00433028 15.0115 2.94678e-05H15.0133ZM15.0133 0.937253C17.2066 0.937253 18.9996 2.57961 19.2051 4.68792H10.8215C10.9289 3.65369 11.4179 2.69662 12.193 2.00347C12.968 1.31031 13.9735 0.92904 15.0133 0.937253ZM8.25075 5.62691H21.7528C22.8743 5.62691 23.4926 6.58717 23.629 7.53679L26.4814 27.284C26.6232 28.2655 25.608 29.0628 24.6034 29.0628H5.39833C4.39733 29.0628 3.38215 28.2709 3.52389 27.284L6.37808 7.53679C6.5269 6.49504 7.19128 5.62691 8.25075 5.62691ZM19.2264 9.37403C19.2264 11.6755 17.3484 13.5375 15.0133 13.5375C12.6782 13.5375 10.8002 11.6755 10.8002 9.37226C10.8002 8.74863 9.86299 8.74508 9.86299 9.37226C9.86299 12.1857 12.1768 14.473 15.0133 14.473C17.848 14.473 20.1618 12.1857 20.1618 9.37049C20.1618 8.74863 19.2264 8.74863 19.2264 9.37049V9.37403Z" fill="#333333"/>
</g>
<defs>
<clipPath id="clip0_80_87">
<rect width="30" height="30" fill="white"/>
</clipPath>
</defs>
</svg>
