<svg width="36" height="36" viewBox="0 0 36 36" fill="none" xmlns="http://www.w3.org/2000/svg">
<g clip-path="url(#clip0_79_20)">
<path d="M14.4 36C14.0989 35.9997 13.8007 35.9399 13.5227 35.824C13.2447 35.7082 12.9923 35.5386 12.78 35.325L8.58423 31.14C8.55076 31.1066 8.52421 31.0669 8.50609 31.0232C8.48797 30.9795 8.47865 30.9326 8.47865 30.8853C8.47865 30.838 8.48797 30.7912 8.50609 30.7475C8.52421 30.7037 8.55076 30.664 8.58423 30.6306C9.00958 30.2053 9.24855 29.6284 9.24855 29.0268C9.24855 28.4253 9.00958 27.8484 8.58423 27.423C8.37362 27.2124 8.12358 27.0453 7.8484 26.9313C7.57322 26.8174 7.27828 26.7587 6.98043 26.7587C6.37889 26.7587 5.80198 26.9977 5.37663 27.423C5.3432 27.4565 5.30349 27.483 5.25979 27.5012C5.21608 27.5193 5.16924 27.5286 5.12193 27.5286C5.07462 27.5286 5.02777 27.5193 4.98407 27.5012C4.94037 27.483 4.90066 27.4565 4.86723 27.423L0.67503 23.22C0.243822 22.7872 0.00170898 22.2011 0.00170898 21.5901C0.00170898 20.9791 0.243822 20.3931 0.67503 19.9602L19.9656 0.675009C20.3982 0.243362 20.9844 0.000946045 21.5955 0.000946045C22.2066 0.000946045 22.7928 0.243362 23.2254 0.675009L27.4158 4.86001C27.4493 4.89344 27.4759 4.93315 27.494 4.97685C27.5121 5.02055 27.5214 5.0674 27.5214 5.11471C27.5214 5.16202 27.5121 5.20886 27.494 5.25257C27.4759 5.29627 27.4493 5.33597 27.4158 5.36941C27.0035 5.79771 26.7757 6.37068 26.7814 6.96516C26.7871 7.55964 27.0257 8.12816 27.4461 8.54854C27.8665 8.96892 28.435 9.20759 29.0295 9.21325C29.624 9.21891 30.1969 8.99111 30.6252 8.57881C30.6941 8.51374 30.7852 8.47749 30.8799 8.47749C30.9747 8.47749 31.0658 8.51374 31.1346 8.57881L35.325 12.78C35.7571 13.2124 35.9998 13.7986 35.9998 14.4099C35.9998 15.0212 35.7571 15.6074 35.325 16.0398L16.0362 35.325C15.8219 35.5405 15.5669 35.7111 15.286 35.827C15.0051 35.9429 14.7039 36.0017 14.4 36ZM9.33303 30.8628L13.293 34.8228C13.5874 35.115 13.9852 35.2793 14.4 35.28C14.6081 35.2805 14.8142 35.2397 15.0063 35.16C15.1985 35.0802 15.373 34.9632 15.5196 34.8156L34.8174 15.525C35.1139 15.2275 35.2803 14.8245 35.2803 14.4045C35.2803 13.9845 35.1139 13.5816 34.8174 13.284L30.8574 9.33301C30.2824 9.78392 29.5621 10.0086 28.8327 9.96464C28.1033 9.92067 27.4152 9.61109 26.8985 9.09437C26.3818 8.57765 26.0722 7.88958 26.0282 7.16015C25.9842 6.43073 26.2089 5.71045 26.6598 5.13541L22.6998 1.17541C22.4023 0.87896 21.9994 0.71251 21.5793 0.71251C21.1593 0.71251 20.7564 0.87896 20.4588 1.17541L1.18443 20.4732C0.887981 20.7708 0.721532 21.1737 0.721532 21.5937C0.721532 22.0137 0.887981 22.4167 1.18443 22.7142L5.14443 26.6742C5.71906 26.2223 6.43944 25.9967 7.16919 26.0402C7.89895 26.0836 8.58746 26.3931 9.10439 26.91C9.62132 27.427 9.93081 28.1155 9.97427 28.8452C10.0177 29.575 9.79215 30.2954 9.34023 30.87L9.33303 30.8628Z" fill="#969696"/>
<path d="M17.0172 28.6938C16.9219 28.6934 16.8306 28.6552 16.7634 28.5876L7.4124 19.2366C7.37848 19.2033 7.35146 19.1636 7.33287 19.1198C7.31429 19.076 7.30451 19.029 7.30409 18.9815C7.30367 18.9339 7.31263 18.8867 7.33044 18.8427C7.34825 18.7986 7.37457 18.7584 7.4079 18.7245C7.44123 18.6906 7.48091 18.6635 7.52469 18.645C7.56846 18.6264 7.61547 18.6166 7.66302 18.6162C7.71057 18.6158 7.75774 18.6247 7.80183 18.6425C7.84593 18.6603 7.88608 18.6867 7.92 18.72L17.28 28.08C17.3308 28.1303 17.3654 28.1947 17.3795 28.2648C17.3935 28.3349 17.3864 28.4076 17.359 28.4736C17.3316 28.5397 17.2851 28.5961 17.2255 28.6356C17.1659 28.6751 17.0959 28.696 17.0244 28.6956L17.0172 28.6938ZM20.7378 23.5926C20.6504 23.5934 20.5658 23.5625 20.4995 23.5056C20.4333 23.4486 20.39 23.3695 20.3778 23.283L18.4158 9.30599C18.4027 9.21051 18.428 9.11373 18.4862 9.03693C18.5445 8.96013 18.6308 8.90961 18.7263 8.89649C18.8218 8.88336 18.9186 8.9087 18.9954 8.96693C19.0722 9.02516 19.1227 9.11151 19.1358 9.20699L21.0996 23.1822C21.113 23.2767 21.0882 23.3727 21.0308 23.4489C20.9735 23.5252 20.8881 23.5756 20.7936 23.589L20.7378 23.5926ZM24.3594 19.9044C23.9571 19.903 23.5614 19.8025 23.2072 19.6118C22.853 19.421 22.5512 19.1459 22.3287 18.8108C22.1061 18.4757 21.9695 18.0909 21.931 17.6905C21.8926 17.29 21.9534 16.8863 22.1081 16.5149C22.2628 16.1436 22.5067 15.8161 22.8181 15.5614C23.1295 15.3067 23.4989 15.1327 23.8935 15.0548C24.2882 14.9768 24.696 14.9974 25.0808 15.1145C25.4657 15.2317 25.8157 15.4419 26.1 15.7266C26.442 16.069 26.6748 16.5052 26.769 16.9799C26.8632 17.4546 26.8146 17.9466 26.6293 18.3937C26.4439 18.8408 26.1303 19.2229 25.7279 19.4918C25.3255 19.7607 24.8524 19.9043 24.3684 19.9044H24.3594ZM24.3594 15.7284C23.9601 15.7287 23.5733 15.8674 23.2648 16.121C22.9563 16.3745 22.7452 16.7271 22.6676 17.1188C22.5899 17.5104 22.6504 17.9169 22.8388 18.269C23.0271 18.621 23.3318 18.8969 23.7007 19.0496C24.0696 19.2023 24.4801 19.2223 24.8622 19.1064C25.2443 18.9904 25.5743 18.7455 25.7961 18.4135C26.018 18.0815 26.1178 17.6828 26.0787 17.2855C26.0396 16.8881 25.8639 16.5166 25.5816 16.2342C25.4213 16.0735 25.2307 15.9461 25.021 15.8593C24.8112 15.7725 24.5864 15.728 24.3594 15.7284ZM15.1506 17.4798C14.7479 17.4799 14.3514 17.3806 13.9963 17.1909C13.6411 17.0011 13.3383 16.7266 13.1146 16.3918C12.8909 16.057 12.7532 15.6722 12.7138 15.2715C12.6743 14.8707 12.7344 14.4665 12.8886 14.0945C13.0427 13.7225 13.2863 13.3943 13.5977 13.1389C13.909 12.8836 14.2786 12.709 14.6735 12.6306C15.0685 12.5522 15.4767 12.5725 15.862 12.6896C16.2472 12.8067 16.5977 13.0171 16.8822 13.302C17.2242 13.6444 17.457 14.0806 17.5512 14.5553C17.6454 15.03 17.5968 15.522 17.4115 15.9691C17.2261 16.4162 16.9125 16.7983 16.5101 17.0672C16.1077 17.3361 15.6346 17.4797 15.1506 17.4798ZM15.1506 13.3056C14.7511 13.3074 14.3646 13.4475 14.0569 13.7022C13.7491 13.9568 13.539 14.3103 13.4625 14.7023C13.3859 15.0944 13.4475 15.5008 13.6368 15.8526C13.8262 16.2043 14.1315 16.4796 14.501 16.6316C14.8704 16.7836 15.281 16.8029 15.6631 16.6862C16.0451 16.5696 16.375 16.3241 16.5965 15.9917C16.818 15.6593 16.9174 15.2604 16.878 14.8628C16.8385 14.4653 16.6625 14.0938 16.38 13.8114C16.219 13.6495 16.0274 13.5214 15.8163 13.4346C15.6052 13.3477 15.3789 13.3039 15.1506 13.3056Z" fill="#969696"/>
</g>
<defs>
<clipPath id="clip0_79_20">
<rect width="36" height="36" fill="white"/>
</clipPath>
</defs>
</svg>
